<?xml version="1.0" encoding="UTF-8"?>
<svg viewBox="0 0 166.37231 168.47308" xmlns="http://www.w3.org/2000/svg">
 <defs>
  <linearGradient id="a" x1="379.92" x2="387.75" y1="-298.54" y2="-148.13" gradientUnits="userSpaceOnUse">
   <stop stop-color="#0146a8" offset="0"/>
   <stop stop-color="#0146a8" stop-opacity="0" offset="1"/>
  </linearGradient>
  <linearGradient id="b" x1="381.89" x2="387.75" y1="-310.05" y2="-147.97" gradientTransform="matrix(.93571 0 0 .97143 681.22 964.32)" gradientUnits="userSpaceOnUse">
   <stop stop-color="#edf4fd" stop-opacity=".52846" offset="0"/>
   <stop stop-color="#175bb3" stop-opacity="0" offset="1"/>
  </linearGradient>
 </defs>
 <g transform="matrix(.75853 0 0 .75853 -708.75 -492.58)">
  <path transform="matrix(1 0 0 1.0126 656.29 971.52)" d="m497.42-208.45c0 60.568-49.1 109.67-109.67 109.67s-109.67-49.1-109.67-109.67 49.1-109.67 109.67-109.67 109.67 49.1 109.67 109.67z" fill="#103683"/>
  <path transform="matrix(.93571 0 0 .97143 681.22 964.32)" d="m497.42-208.45c0 60.568-49.1 109.67-109.67 109.67s-109.67-49.1-109.67-109.67 49.1-109.67 109.67-109.67 109.67 49.1 109.67 109.67z" fill="url(#a)"/>
  <g transform="matrix(.94024 0 0 .94024 53.733 49.881)" fill="#eee">
   <path d="m1022.1 673.31c-5.4945 0-9.9163 4.144-9.9163 9.293v35.429c0 5.149 4.4218 9.293 9.9163 9.293h63.234c5.4945 0 9.9163-4.1441 9.9163-9.293v-35.429c0-5.149-4.4218-9.293-9.9163-9.293h-63.234zm9.1132 8.1443h45.008c5.4944 0 9.9163 4.1439 9.9163 9.293v19.141c0 5.1491-4.4219 9.2931-9.9163 9.2931h-45.008c-5.4945 0-9.9163-4.144-9.9163-9.2931v-19.141c0-5.1491 4.4218-9.293 9.9163-9.293z"/>
   <path transform="translate(0 308.27)" d="m984.47 470.46h20.701a14.021 14.021 0 0 1 14.021 14.021v9.623a14.021 14.021 0 0 1 -14.021 14.021h-20.701a14.021 14.021 0 0 1 -14.021 -14.021v-9.623a14.021 14.021 0 0 1 14.021 -14.021"/>
   <path d="m1105.2 779.84h20.701a14.021 14.021 0 0 1 14.021 14.021v9.6231a14.021 14.021 0 0 1 -14.021 14.021h-20.701a14.021 14.021 0 0 1 -14.021 -14.021v-9.6231a14.021 14.021 0 0 1 14.021 -14.021"/>
   <path d="m1044.3 779.84h20.701a14.021 14.021 0 0 1 14.021 14.021v9.6231a14.021 14.021 0 0 1 -14.021 14.021h-20.701a14.021 14.021 0 0 1 -14.021 -14.021v-9.6231a14.021 14.021 0 0 1 14.021 -14.021"/>
   <path d="m1049.7 736.36h9.1395v37.389h-9.1395z"/>
   <path d="m1110.8 748.54h9.4164v25.203h-9.4164z"/>
   <path d="m981.92 748.54h9.4164v25.203h-9.4164z"/>
   <path d="m981.92 748.54h138.26v10.771h-138.26z"/>
   <path transform="translate(0 308.27)" d="m1029.7 379.64h49.546v5.2876h-49.546z"/>
   <path transform="translate(0 308.27)" d="m1029.7 379.64h49.546v5.2876h-49.546z"/>
   <path d="m1029.7 697.91h49.546v5.2876h-49.546z"/>
   <path d="m1029.7 707.91h49.546v5.2876h-49.546z"/>
  </g>
  <path d="m1044 655.28c-56.674 0-102.63 47.725-102.63 106.56 0 3.7524 0.1979 7.4415 0.5625 11.094 50.067 18.726 126.58 32.369 204.69-10.594 7e-4 -0.16695 0-0.33287 0-0.5 0-58.837-45.951-106.56-102.62-106.56z" fill="url(#b)"/>
 </g>
</svg>
